<mxfile host="65bd71144e">
    <diagram id="-jfnpSTbMApgaZPuW0xd" name="Seite-1">
        <mxGraphModel dx="677" dy="748" grid="1" gridSize="10" guides="1" tooltips="1" connect="1" arrows="1" fold="1" page="1" pageScale="1" pageWidth="1200" pageHeight="1600" background="#F4F1DE" math="0" shadow="0">
            <root>
                <mxCell id="0"/>
                <mxCell id="1" parent="0"/>
                <mxCell id="rzSwk5tuQy_-DxyDa-ns-6" value="" style="group;fontColor=#393C56;" parent="1" vertex="1" connectable="0">
                    <mxGeometry x="120" width="130" height="130" as="geometry"/>
                </mxCell>
                <mxCell id="rzSwk5tuQy_-DxyDa-ns-1" value=":Airport" style="ellipse;whiteSpace=wrap;html=1;aspect=fixed;align=center;verticalAlign=top;fillColor=#F2CC8F;strokeColor=#E07A5F;fontColor=#393C56;" parent="rzSwk5tuQy_-DxyDa-ns-6" vertex="1">
                    <mxGeometry width="130" height="130" as="geometry"/>
                </mxCell>
                <mxCell id="rzSwk5tuQy_-DxyDa-ns-5" value="&lt;b&gt;name&lt;/b&gt;: string&lt;br&gt;" style="text;html=1;strokeColor=none;fillColor=none;align=center;verticalAlign=middle;whiteSpace=wrap;rounded=0;fontColor=#393C56;" parent="rzSwk5tuQy_-DxyDa-ns-6" vertex="1">
                    <mxGeometry width="130" height="130" as="geometry"/>
                </mxCell>
                <mxCell id="rzSwk5tuQy_-DxyDa-ns-8" value="" style="group;fontColor=#393C56;" parent="1" vertex="1" connectable="0">
                    <mxGeometry x="340" y="220" width="180" height="140" as="geometry"/>
                </mxCell>
                <mxCell id="rzSwk5tuQy_-DxyDa-ns-3" value=":Flight" style="ellipse;whiteSpace=wrap;html=1;aspect=fixed;align=center;verticalAlign=top;fillColor=#F2CC8F;strokeColor=#E07A5F;fontColor=#393C56;" parent="rzSwk5tuQy_-DxyDa-ns-8" vertex="1">
                    <mxGeometry x="50" y="10" width="130" height="130" as="geometry"/>
                </mxCell>
                <mxCell id="rzSwk5tuQy_-DxyDa-ns-17" value="&lt;b&gt;airline&lt;/b&gt;: string&lt;br&gt;&lt;b&gt;flightNumber&lt;/b&gt;: string&lt;br&gt;&lt;b&gt;departureTime&lt;/b&gt;: Date&lt;br&gt;&lt;b&gt;arrivalTime&lt;/b&gt;: Date" style="text;html=1;strokeColor=none;fillColor=none;align=center;verticalAlign=middle;whiteSpace=wrap;rounded=0;fontColor=#393C56;" parent="rzSwk5tuQy_-DxyDa-ns-8" vertex="1">
                    <mxGeometry x="50" y="10" width="130" height="130" as="geometry"/>
                </mxCell>
                <mxCell id="rzSwk5tuQy_-DxyDa-ns-10" value="" style="group;fontColor=#393C56;" parent="1" vertex="1" connectable="0">
                    <mxGeometry x="120" y="220" width="160" height="150" as="geometry"/>
                </mxCell>
                <mxCell id="rzSwk5tuQy_-DxyDa-ns-2" value=":Airplane" style="ellipse;whiteSpace=wrap;html=1;aspect=fixed;align=center;verticalAlign=top;fillColor=#F2CC8F;strokeColor=#E07A5F;fontColor=#393C56;" parent="rzSwk5tuQy_-DxyDa-ns-10" vertex="1">
                    <mxGeometry width="150" height="150" as="geometry"/>
                </mxCell>
                <mxCell id="rzSwk5tuQy_-DxyDa-ns-9" value="&lt;b&gt;name&lt;/b&gt;: string&lt;br&gt;&lt;b&gt;model&lt;/b&gt;: string&lt;br&gt;&lt;b&gt;passengerCapacity&lt;/b&gt;: int" style="text;html=1;strokeColor=none;fillColor=none;align=center;verticalAlign=middle;whiteSpace=wrap;rounded=0;fontColor=#393C56;" parent="rzSwk5tuQy_-DxyDa-ns-10" vertex="1">
                    <mxGeometry width="150" height="150" as="geometry"/>
                </mxCell>
                <mxCell id="rzSwk5tuQy_-DxyDa-ns-11" style="rounded=0;orthogonalLoop=1;jettySize=auto;html=1;labelBackgroundColor=#F4F1DE;strokeColor=#E07A5F;fontColor=#393C56;entryX=1;entryY=0.5;entryDx=0;entryDy=0;" parent="1" source="rzSwk5tuQy_-DxyDa-ns-3" target="rzSwk5tuQy_-DxyDa-ns-9" edge="1">
                    <mxGeometry relative="1" as="geometry">
                        <mxPoint x="290" y="360" as="targetPoint"/>
                    </mxGeometry>
                </mxCell>
                <mxCell id="rzSwk5tuQy_-DxyDa-ns-18" value="USES" style="edgeLabel;html=1;align=center;verticalAlign=middle;resizable=0;points=[];labelBackgroundColor=none;fontColor=#393C56;" parent="rzSwk5tuQy_-DxyDa-ns-11" vertex="1" connectable="0">
                    <mxGeometry x="-0.1882" y="2" relative="1" as="geometry">
                        <mxPoint x="-1" y="-17" as="offset"/>
                    </mxGeometry>
                </mxCell>
                <mxCell id="rzSwk5tuQy_-DxyDa-ns-12" style="edgeStyle=none;rounded=0;orthogonalLoop=1;jettySize=auto;html=1;entryX=0.846;entryY=0.846;entryDx=0;entryDy=0;entryPerimeter=0;labelBackgroundColor=#F4F1DE;strokeColor=#E07A5F;fontColor=#393C56;" parent="1" target="rzSwk5tuQy_-DxyDa-ns-5" edge="1">
                    <mxGeometry relative="1" as="geometry">
                        <mxPoint x="400" y="260" as="sourcePoint"/>
                    </mxGeometry>
                </mxCell>
                <mxCell id="rzSwk5tuQy_-DxyDa-ns-14" value="FLIES_FROM" style="edgeLabel;html=1;align=center;verticalAlign=middle;resizable=0;points=[];labelBackgroundColor=none;fontColor=#393C56;" parent="rzSwk5tuQy_-DxyDa-ns-12" vertex="1" connectable="0">
                    <mxGeometry x="0.1983" relative="1" as="geometry">
                        <mxPoint x="-19" y="35" as="offset"/>
                    </mxGeometry>
                </mxCell>
                <mxCell id="rzSwk5tuQy_-DxyDa-ns-15" style="edgeStyle=none;rounded=0;orthogonalLoop=1;jettySize=auto;html=1;exitX=0;exitY=0;exitDx=0;exitDy=0;labelBackgroundColor=#F4F1DE;strokeColor=#E07A5F;fontColor=#393C56;entryX=0.923;entryY=0.769;entryDx=0;entryDy=0;entryPerimeter=0;" parent="1" source="rzSwk5tuQy_-DxyDa-ns-3" target="rzSwk5tuQy_-DxyDa-ns-5" edge="1">
                    <mxGeometry relative="1" as="geometry">
                        <mxPoint x="404.12463873995625" y="282.21425025462054" as="sourcePoint"/>
                        <mxPoint x="280" y="200" as="targetPoint"/>
                    </mxGeometry>
                </mxCell>
                <mxCell id="rzSwk5tuQy_-DxyDa-ns-16" value="FLIES_TO" style="edgeLabel;html=1;align=center;verticalAlign=middle;resizable=0;points=[];labelBackgroundColor=none;fontColor=#393C56;" parent="rzSwk5tuQy_-DxyDa-ns-15" vertex="1" connectable="0">
                    <mxGeometry x="0.1983" relative="1" as="geometry">
                        <mxPoint x="56" y="21" as="offset"/>
                    </mxGeometry>
                </mxCell>
                <mxCell id="3SsAFsKSN9-3vUPu50r0-1" value="" style="group;fontColor=#393C56;" parent="1" vertex="1" connectable="0">
                    <mxGeometry x="560" width="130" height="130" as="geometry"/>
                </mxCell>
                <mxCell id="3SsAFsKSN9-3vUPu50r0-2" value=":Passenger" style="ellipse;whiteSpace=wrap;html=1;aspect=fixed;align=center;verticalAlign=top;fillColor=#F2CC8F;strokeColor=#E07A5F;fontColor=#393C56;" parent="3SsAFsKSN9-3vUPu50r0-1" vertex="1">
                    <mxGeometry width="130" height="130" as="geometry"/>
                </mxCell>
                <mxCell id="3SsAFsKSN9-3vUPu50r0-3" value="&lt;b&gt;firstName&lt;/b&gt;: string&lt;br&gt;&lt;b&gt;lastName&lt;/b&gt;: string" style="text;html=1;strokeColor=none;fillColor=none;align=center;verticalAlign=middle;whiteSpace=wrap;rounded=0;fontColor=#393C56;" parent="3SsAFsKSN9-3vUPu50r0-1" vertex="1">
                    <mxGeometry width="130" height="130" as="geometry"/>
                </mxCell>
                <mxCell id="3SsAFsKSN9-3vUPu50r0-4" value="" style="group;fontColor=#393C56;" parent="1" vertex="1" connectable="0">
                    <mxGeometry x="360" width="130" height="130" as="geometry"/>
                </mxCell>
                <mxCell id="3SsAFsKSN9-3vUPu50r0-5" value=":City" style="ellipse;whiteSpace=wrap;html=1;aspect=fixed;align=center;verticalAlign=top;fillColor=#F2CC8F;strokeColor=#E07A5F;fontColor=#393C56;" parent="3SsAFsKSN9-3vUPu50r0-4" vertex="1">
                    <mxGeometry width="130" height="130" as="geometry"/>
                </mxCell>
                <mxCell id="3SsAFsKSN9-3vUPu50r0-6" value="&lt;b&gt;name&lt;/b&gt;: string&lt;br&gt;&lt;b&gt;country&lt;/b&gt;: string" style="text;html=1;strokeColor=none;fillColor=none;align=center;verticalAlign=middle;whiteSpace=wrap;rounded=0;fontColor=#393C56;" parent="3SsAFsKSN9-3vUPu50r0-4" vertex="1">
                    <mxGeometry width="130" height="130" as="geometry"/>
                </mxCell>
                <mxCell id="3SsAFsKSN9-3vUPu50r0-7" style="edgeStyle=none;rounded=0;orthogonalLoop=1;jettySize=auto;html=1;labelBackgroundColor=#F4F1DE;strokeColor=#E07A5F;fontColor=#393C56;" parent="1" source="rzSwk5tuQy_-DxyDa-ns-1" target="3SsAFsKSN9-3vUPu50r0-5" edge="1">
                    <mxGeometry relative="1" as="geometry">
                        <mxPoint x="419.0380592228744" y="259.0380592228744" as="sourcePoint"/>
                        <mxPoint x="330" y="90" as="targetPoint"/>
                    </mxGeometry>
                </mxCell>
                <mxCell id="3SsAFsKSN9-3vUPu50r0-12" value="LOCATED_IN" style="edgeLabel;html=1;align=center;verticalAlign=middle;resizable=0;points=[];fontColor=#393C56;labelBackgroundColor=none;" parent="3SsAFsKSN9-3vUPu50r0-7" vertex="1" connectable="0">
                    <mxGeometry x="0.3142" y="-1" relative="1" as="geometry">
                        <mxPoint x="-12" y="-16" as="offset"/>
                    </mxGeometry>
                </mxCell>
                <mxCell id="3SsAFsKSN9-3vUPu50r0-10" style="edgeStyle=none;rounded=0;orthogonalLoop=1;jettySize=auto;html=1;labelBackgroundColor=#F4F1DE;strokeColor=#E07A5F;fontColor=#393C56;" parent="1" source="rzSwk5tuQy_-DxyDa-ns-3" target="3SsAFsKSN9-3vUPu50r0-2" edge="1">
                    <mxGeometry relative="1" as="geometry">
                        <mxPoint x="260.95548225615994" y="160.85017732506094" as="sourcePoint"/>
                        <mxPoint x="308.94448724536005" y="89.08326913196015" as="targetPoint"/>
                    </mxGeometry>
                </mxCell>
                <mxCell id="3SsAFsKSN9-3vUPu50r0-11" value="CARRIES" style="edgeLabel;html=1;align=center;verticalAlign=middle;resizable=0;points=[];labelBackgroundColor=none;fontColor=#393C56;" parent="3SsAFsKSN9-3vUPu50r0-10" vertex="1" connectable="0">
                    <mxGeometry x="0.3032" relative="1" as="geometry">
                        <mxPoint x="16" y="29" as="offset"/>
                    </mxGeometry>
                </mxCell>
            </root>
        </mxGraphModel>
    </diagram>
</mxfile>